<svg width="21" height="19" viewBox="0 0 21 19" fill="none" xmlns="http://www.w3.org/2000/svg">
<path d="M0.919434 15.998V13.998H3.66943L3.26943 13.648C2.40277 12.8814 1.79443 12.0064 1.44443 11.023C1.09443 10.0397 0.919434 9.04805 0.919434 8.04805C0.919434 6.19805 1.4736 4.55221 2.58193 3.11055C3.69027 1.66888 5.1361 0.714714 6.91943 0.248047V2.34805C5.71943 2.78138 4.75277 3.51888 4.01943 4.56055C3.2861 5.60221 2.91943 6.76471 2.91943 8.04805C2.91943 8.79805 3.0611 9.52721 3.34443 10.2355C3.62777 10.9439 4.06943 11.598 4.66943 12.198L4.91943 12.448V9.99805H6.91943V15.998H0.919434ZM18.8444 6.99805H16.8194C16.7361 6.41471 16.5569 5.85638 16.2819 5.32305C16.0069 4.78971 15.6361 4.28138 15.1694 3.79805L14.9194 3.54805V5.99805H12.9194V-0.00195312H18.9194V1.99805H16.1694L16.5694 2.34805C17.2528 3.04805 17.7778 3.78971 18.1444 4.57305C18.5111 5.35638 18.7444 6.16471 18.8444 6.99805ZM14.9194 18.998L14.6194 17.498C14.4194 17.4147 14.2319 17.3272 14.0569 17.2355C13.8819 17.1439 13.7028 17.0314 13.5194 16.898L12.0694 17.348L11.0694 15.648L12.2194 14.648C12.1861 14.4147 12.1694 14.198 12.1694 13.998C12.1694 13.798 12.1861 13.5814 12.2194 13.348L11.0694 12.348L12.0694 10.648L13.5194 11.098C13.7028 10.9647 13.8819 10.8522 14.0569 10.7605C14.2319 10.6689 14.4194 10.5814 14.6194 10.498L14.9194 8.99805H16.9194L17.2194 10.498C17.4194 10.5814 17.6069 10.673 17.7819 10.773C17.9569 10.873 18.1361 10.998 18.3194 11.148L19.7694 10.648L20.7694 12.398L19.6194 13.398C19.6528 13.598 19.6694 13.8064 19.6694 14.023C19.6694 14.2397 19.6528 14.448 19.6194 14.648L20.7694 15.648L19.7694 17.348L18.3194 16.898C18.1361 17.0314 17.9569 17.1439 17.7819 17.2355C17.6069 17.3272 17.4194 17.4147 17.2194 17.498L16.9194 18.998H14.9194ZM15.9194 15.998C16.4694 15.998 16.9403 15.8022 17.3319 15.4105C17.7236 15.0189 17.9194 14.548 17.9194 13.998C17.9194 13.448 17.7236 12.9772 17.3319 12.5855C16.9403 12.1939 16.4694 11.998 15.9194 11.998C15.3694 11.998 14.8986 12.1939 14.5069 12.5855C14.1153 12.9772 13.9194 13.448 13.9194 13.998C13.9194 14.548 14.1153 15.0189 14.5069 15.4105C14.8986 15.8022 15.3694 15.998 15.9194 15.998Z" fill="#25E766"/>
</svg>
