<svg width="18" height="21" viewBox="0 0 18 21" fill="none" xmlns="http://www.w3.org/2000/svg">
<path d="M2.075 11H5C5.18333 11 5.35833 11.0458 5.525 11.1375C5.69167 11.2292 5.81667 11.3667 5.9 11.55L7 13.75L10.1 7.55C10.2833 7.16667 10.5833 6.975 11 6.975C11.4167 6.975 11.7167 7.16667 11.9 7.55L13.625 11H15.925C15.675 9.3 14.9 7.875 13.6 6.725C12.3 5.575 10.7667 5 9 5C7.23333 5 5.7 5.575 4.4 6.725C3.1 7.875 2.325 9.3 2.075 11ZM9 19C10.7667 19 12.3 18.425 13.6 17.275C14.9 16.125 15.675 14.7 15.925 13H13C12.8167 13 12.6417 12.9542 12.475 12.8625C12.3083 12.7708 12.1833 12.6333 12.1 12.45L11 10.25L7.9 16.45C7.71667 16.8333 7.41667 17.025 7 17.025C6.58333 17.025 6.28333 16.8333 6.1 16.45L4.375 13H2.075C2.325 14.7 3.1 16.125 4.4 17.275C5.7 18.425 7.23333 19 9 19ZM9 21C7.76667 21 6.60417 20.7625 5.5125 20.2875C4.42083 19.8125 3.46667 19.1667 2.65 18.35C1.83333 17.5333 1.1875 16.5792 0.7125 15.4875C0.2375 14.3958 0 13.2333 0 12H2C2 13.9333 2.68333 15.5833 4.05 16.95C5.41667 18.3167 7.06667 19 9 19C10.9333 19 12.5833 18.3167 13.95 16.95C15.3167 15.5833 16 13.9333 16 12H18C18 13.2333 17.7625 14.3958 17.2875 15.4875C16.8125 16.5792 16.1667 17.5333 15.35 18.35C14.5333 19.1667 13.5792 19.8125 12.4875 20.2875C11.3958 20.7625 10.2333 21 9 21ZM0 12C0 10.7667 0.2375 9.60417 0.7125 8.5125C1.1875 7.42083 1.83333 6.46667 2.65 5.65C3.46667 4.83333 4.42083 4.1875 5.5125 3.7125C6.60417 3.2375 7.76667 3 9 3C10.0333 3 11.025 3.16667 11.975 3.5C12.925 3.83333 13.8167 4.31667 14.65 4.95L16.05 3.55L17.45 4.95L16.05 6.35C16.6833 7.18333 17.1667 8.075 17.5 9.025C17.8333 9.975 18 10.9667 18 12H16C16 10.0667 15.3167 8.41667 13.95 7.05C12.5833 5.68333 10.9333 5 9 5C7.06667 5 5.41667 5.68333 4.05 7.05C2.68333 8.41667 2 10.0667 2 12H0ZM6 2V0H12V2H6ZM9 19C7.06667 19 5.41667 18.3167 4.05 16.95C2.68333 15.5833 2 13.9333 2 12C2 10.0667 2.68333 8.41667 4.05 7.05C5.41667 5.68333 7.06667 5 9 5C10.9333 5 12.5833 5.68333 13.95 7.05C15.3167 8.41667 16 10.0667 16 12C16 13.9333 15.3167 15.5833 13.95 16.95C12.5833 18.3167 10.9333 19 9 19Z" fill="#25E766"/>
</svg>
